<?xml version="1.0" standalone="no"?>
<!DOCTYPE svg PUBLIC "-//W3C//DTD SVG 20010904//EN"
 "http://www.w3.org/TR/2001/REC-SVG-20010904/DTD/svg10.dtd">
<svg version="1.0" xmlns="http://www.w3.org/2000/svg"
 width="512.000000pt" height="512.000000pt" viewBox="0 0 512.000000 512.000000"
 preserveAspectRatio="xMidYMid meet">
<metadata>
Created by potrace 1.14, written by Peter Selinger 2001-2017
</metadata>
<g transform="translate(0.000000,512.000000) scale(0.100000,-0.100000)"
fill="#000000" stroke="none">
<path d="M2188 5103 c-14 -9 -31 -27 -37 -40 -7 -16 -11 -154 -11 -406 0 -328
2 -386 16 -412 18 -35 20 -133 3 -214 -16 -80 -59 -161 -139 -261 -61 -77
-149 -220 -135 -220 3 0 1 -9 -5 -21 -32 -59 -40 -155 -40 -483 0 -181 -2
-327 -4 -325 -3 2 -7 23 -10 45 -6 52 -15 107 -26 164 -5 25 -12 63 -15 85 -3
22 -8 47 -10 55 -3 8 -7 29 -9 45 -14 109 -39 193 -74 250 -55 88 -158 162
-266 191 -59 16 -176 11 -235 -11 -24 -8 -46 -14 -47 -12 -13 13 -20 266 -9
357 16 142 15 159 -17 179 -34 21 -66 20 -92 -4 -19 -17 -25 -39 -35 -116 -6
-52 -12 -150 -12 -218 0 -68 -2 -122 -4 -119 -4 4 -148 417 -201 578 -29 88
-47 118 -77 129 -41 16 -96 -21 -97 -64 0 -15 73 -238 143 -435 40 -113 64
-191 54 -177 -6 10 -30 46 -52 80 -103 160 -192 256 -297 320 -85 51 -130 49
-153 -6 -20 -49 -3 -80 64 -115 103 -56 219 -195 330 -399 63 -117 69 -133 49
-133 -36 0 -145 -65 -197 -117 -117 -117 -156 -282 -104 -438 9 -27 22 -59 28
-70 7 -11 31 -55 54 -97 54 -103 117 -221 152 -286 16 -29 29 -55 29 -57 0 -2
-94 -4 -209 -4 -216 -1 -248 -5 -289 -44 -47 -44 -54 -70 -53 -217 0 -143 8
-179 44 -219 37 -40 78 -51 187 -51 55 0 100 -3 101 -7 1 -11 -2 4 99 -451 50
-227 93 -420 95 -430 2 -9 20 -89 39 -177 20 -88 38 -169 40 -180 3 -11 10
-42 16 -70 15 -65 19 -83 25 -120 29 -164 99 -265 224 -324 l56 -26 1485 0
1485 0 55 26 c133 62 206 178 234 370 3 20 8 42 10 50 3 8 8 25 10 39 3 14 7
34 10 45 11 48 49 222 53 245 2 14 10 50 18 80 8 30 16 66 19 80 2 14 16 79
31 145 15 66 29 128 31 138 2 10 5 26 8 35 3 9 7 28 10 42 2 14 9 45 15 70 5
25 12 56 15 70 8 39 14 66 41 190 15 63 28 125 31 138 4 21 9 22 105 22 111 0
149 11 190 56 35 39 39 60 40 218 0 144 -6 170 -53 213 -41 39 -73 44 -284 43
-112 0 -204 4 -205 8 -1 4 -2 183 -3 397 l-1 390 -38 75 c-20 41 -62 122 -91
180 l-54 104 36 22 c60 36 75 72 74 179 0 125 -32 182 -112 202 -19 5 -278 9
-575 8 -518 -1 -541 -2 -573 -20 -52 -31 -76 -79 -78 -152 -1 -72 -7 -85 -25
-51 -6 12 -42 61 -79 108 -89 112 -123 182 -146 295 -11 53 -5 155 10 177 14
20 16 72 16 411 0 429 -1 435 -62 456 -21 8 -117 11 -273 11 -203 -1 -244 -4
-267 -17z m919 -1665 l-21 -39 -13 53 c-7 29 -12 54 -13 55 0 2 15 -5 34 -13
l34 -17 -21 -39z"/>
</g>
</svg>
